<svg width="14" height="15" viewBox="0 0 14 15" fill="none" xmlns="http://www.w3.org/2000/svg">
<path fill-rule="evenodd" clip-rule="evenodd" d="M6.33331 11.5C8.91064 11.5 11 9.41064 11 6.83331C11 4.25598 8.91064 2.16665 6.33331 2.16665C3.75598 2.16665 1.66665 4.25598 1.66665 6.83331C1.66665 9.41064 3.75598 11.5 6.33331 11.5ZM6.33331 12.8333C7.7425 12.8333 9.03822 12.3475 10.0621 11.5342C10.4427 11.232 10.7856 10.8845 11.0829 10.5C11.8669 9.48602 12.3333 8.21414 12.3333 6.83331C12.3333 3.5196 9.64702 0.833313 6.33331 0.833313C3.0196 0.833313 0.333313 3.5196 0.333313 6.83331C0.333313 10.147 3.0196 12.8333 6.33331 12.8333Z" fill="#737373"/>
<path d="M13.5506 13.2826C13.615 13.2183 13.6158 13.1142 13.5525 13.0488L11.0829 10.5C10.7856 10.8845 10.4427 11.232 10.0621 11.5342L12.5488 14.0475C12.6138 14.1132 12.7198 14.1135 12.7851 14.0482L13.5506 13.2826Z" fill="#737373"/>
</svg>
